<?xml version="1.0" encoding="UTF-8" standalone="no"?>
<!-- Created with Inkscape (http://www.inkscape.org/) -->

<svg
   xmlns:dc="http://purl.org/dc/elements/1.1/"
   xmlns:cc="http://creativecommons.org/ns#"
   xmlns:rdf="http://www.w3.org/1999/02/22-rdf-syntax-ns#"
   xmlns:svg="http://www.w3.org/2000/svg"
   xmlns="http://www.w3.org/2000/svg"
   xmlns:sodipodi="http://sodipodi.sourceforge.net/DTD/sodipodi-0.dtd"
   xmlns:inkscape="http://www.inkscape.org/namespaces/inkscape"
   width="360"
   height="360"
   viewBox="0 0 360.00001 360.00001"
   id="svg2"
   version="1.1"
   inkscape:version="0.91 r13725"
   sodipodi:docname="drawing.svg"
   inkscape:export-filename="C:\Users\rmf\Desktop\drawing.png"
   inkscape:export-xdpi="128"
   inkscape:export-ydpi="128">
  <defs
     id="defs4" />
  <sodipodi:namedview
     id="base"
     pagecolor="#ffffff"
     bordercolor="#666666"
     borderopacity="1.0"
     inkscape:pageopacity="0.0"
     inkscape:pageshadow="2"
     inkscape:zoom="0.69999999"
     inkscape:cx="6.8198834"
     inkscape:cy="169.465"
     inkscape:document-units="px"
     inkscape:current-layer="layer1"
     showgrid="false"
     units="px"
     inkscape:window-width="690"
     inkscape:window-height="405"
     inkscape:window-x="223"
     inkscape:window-y="308"
     inkscape:window-maximized="0" />
  <metadata
     id="metadata7">
    <rdf:RDF>
      <cc:Work
         rdf:about="">
        <dc:format>image/svg+xml</dc:format>
        <dc:type
           rdf:resource="http://purl.org/dc/dcmitype/StillImage" />
        <dc:title />
      </cc:Work>
    </rdf:RDF>
  </metadata>
  <g
     inkscape:label="Layer 1"
     inkscape:groupmode="layer"
     id="layer1"
     transform="translate(0,-692.36216)">
    <path
       style="fill:#102c8b;fill-opacity:1"
       d="m 222.1194,724.97077 c -23.60631,1.11797 -43.00949,25.64531 -38.29102,48.80274 -9.76022,18.95556 -31.13862,26.80329 -44.95507,42.2539 -14.28182,1.2366 -31.83716,1.60066 -41.056637,14.4629 -4.71089,6.60697 -3.34524,15.54003 -8.26368,22.1621 -8.03313,13.1524 -21.60265,22.22122 -34.59179,29.5 -10.80178,-3.21149 -20.22618,-14.06235 -32.29493,-11.22265 -11.35898,4.53085 -14.8594696,20.06207 -8.80468,30.15039 6.48844,11.37558 15.9598,20.52256 23.69771,31.0005 62.17192,73.62185 170.440927,103.77455 261.800327,73.36475 13.93477,-7.51115 33.27976,-6.41654 43.2754,-20.41408 6.93634,-8.61862 -0.59891,-21.5315 -10.30469,-24.06836 -7.26032,-2.42027 -15.42282,-1.70327 -22.38477,1.11719 -10.15329,-9.81203 -13.08456,-25.20481 -11.9668,-38.67774 15.45959,-4.4314 29.53407,10.71881 45.11329,5.7129 6.76406,-2.56768 9.95741,-12.11679 4.43359,-17.5293 -4.09118,-4.66508 -10.03719,-7.48589 -16.08789,-8.54297 -3.41535,-11.25291 -15.77734,-15.14515 -26.19957,-16.58871 -11.68595,-1.24563 -23.51065,-7.45163 -28.00942,-18.85074 -5.31095,-13.93001 -8.40754,-28.61073 -13.29967,-42.70414 -2.01032,-7.61956 -6.02483,-15.12263 -7.92298,-22.38766 2.97018,-16.5079 15.41119,-32.59112 9.44141,-49.88672 -6.69499,-16.53326 -23.85551,-28.76627 -41.99219,-27.68922 -0.44555,-0.004 -0.89064,0.0223 -1.33594,0.0349 z m 0.97852,10.93555 c 10.80777,-0.24456 21.55791,5.06275 26.90625,14.65039 8.07333,12.53466 6.87059,31.38783 -6.00782,40.33203 -16.34169,12.8174 -46.02693,4.03407 -49.06445,-17.63867 -3.6146,-17.12834 9.56969,-37.87235 28.16602,-37.34375 z m 7.50195,6.59961 c -7.31754,9.17675 -14.4986,20.13469 -14.55469,32.26563 -0.18656,5.47797 6.74864,10.36979 11.12891,7.70117 6.41542,-9.63367 15.40503,-21.307 11.22461,-33.55274 -1.32249,-3.06574 -4.41853,-7.48402 -7.16294,-7.13218 z m -33.98047,56.14453 c 10.35404,0.91218 14.22554,13.01449 13.0957,21.98633 -1.82753,14.9077 -3.59036,29.82169 -4.78001,44.74435 -3.85338,36.41928 -10.07782,72.72416 -12.08522,109.3826 -16.71017,6.12801 -31.81021,-6.15598 -47.15625,-10.91211 -15.09662,-3.75919 -28.64215,-12.17044 -41.73573,-20.39447 -8.381667,-5.43658 -15.815427,-12.11539 -22.947857,-18.87506 -8.51117,-1.4568 -12.6346,-11.10767 -8.58594,-18.45117 3.57239,-8.61003 11.06882,-15.32008 19.27734,-19.09375 10.958157,-16.80621 35.990277,-12.29337 48.107417,-27.7207 7.57083,-14.37739 13.0831,-32.95246 29.68946,-39.40821 8.31826,-7.55428 14.42477,-20.82227 27.12109,-21.25781 z m 50.24414,8.99805 c 7.27031,21.40992 14.30109,43.61339 20.7832,64.79883 -11.09155,-14.03491 -8.5718,-33.461 -16.52929,-48.94532 -0.98818,-5.87312 -6.22743,-10.99389 -4.70313,-17.16406 l 0.32425,0.94597 z m -14.56055,-0.59375 c 5.89944,3.49415 4.39332,12.0143 7.36088,17.42429 4.54612,15.02761 9.20164,30.18048 13.24264,45.26126 -9.8147,-5.04978 -25.13863,-1.3211 -27.38086,10.68945 -0.81717,6.78476 -1.09869,15.77894 6.20312,19.21484 9.89783,5.50973 24.66984,2.33781 30.86524,13.59766 10.35343,15.08214 10.79697,33.91509 16.76758,50.75195 0.88045,10.03069 -9.7247,14.31637 -17.99024,14.63672 -9.23788,0.60382 -18.83244,1.59426 -27.94336,3.98242 -9.09105,1.65033 -15.95079,-6.87713 -16.10156,-15.29297 -0.95116,-9.62183 3.15638,-18.95829 2.68789,-28.82197 3.33224,-43.54182 6.26561,-87.28617 10.7086,-130.62529 0.42409,-0.40621 0.95359,-0.84956 1.58007,-0.81836 z m -73.85937,5.79687 c -5.17923,4.40474 -4.64738,3.4808 -0.1036,-0.0871 2.03939,-1.5566 3.11617,-2.37021 0.1036,0.0871 z m -40.39453,16.43555 c -6.38375,0.5321 -11.671,6.7799 -9.62696,13.24023 1.71883,6.45866 6.72577,14.69463 14.29883,14.17969 5.86594,-2.18862 5.02315,-10.54131 3.48047,-15.34375 -1.44994,-4.59581 -4.69962,-8.96094 -7.77734,-12.0664 6.63724,-0.69616 13.85183,3.02608 14.53711,10.36914 2.21001,9.15512 -3.96874,22.95817 -14.91211,21.0664 -14.55908,-1.91568 -17.77527,-26.90834 -3.2793,-31.15625 1.07469,-0.23433 2.18022,-0.33158 3.2793,-0.28906 z M 97.324483,863.3282 c -3.9976,14.45975 -20.57596,18.58794 -30.08008,28.55273 -1.22757,2.21352 -4.60413,7.53236 -7.03516,3.50586 -2.18754,-5.64269 6.01248,-6.55088 8.7333,-9.63499 9.8936,-7.16274 19.32541,-14.94464 28.49913,-23.00368 z m 117.066397,15.82617 c -2.57564,29.92531 -5.52797,59.82794 -7.1875,89.82226 -6.90887,-10.11944 0.51509,-22.11309 1.91407,-32.79687 1.34658,-7.4987 -0.52319,-15.04149 1.26484,-22.51426 1.35728,-12.70033 2.84855,-25.36051 4.30742,-38.05019 z m 37.47266,2.83203 c 21.85363,5.87999 43.38092,13.48934 65,20.38086 0.90877,7.48757 -7.06512,10.84459 -13.23828,9.23242 -12.67678,-1.38511 -22.77259,-10.45409 -35.32813,-12.04101 -7.28498,-2.0411 -18.68568,-3.22101 -20.26562,-12.4668 0.15044,-2.61702 -0.28241,-7.69962 3.83203,-5.10547 z m 26.49023,34.44141 c 11.76712,11.92313 9.77271,30.23642 16.25586,44.72656 -6.15596,1.24387 -6.83661,-7.68848 -8.08789,-11.79102 -1.43468,-11.38751 -5.23125,-22.14537 -8.36523,-33.11718 z m 63.50977,2.02148 c 3.2374,2.26268 -4.56608,1.26312 0,0 z"
       id="path4163"
       inkscape:connector-curvature="0"
       sodipodi:nodetypes="cccccccccccccccccccccccccccccccccccccccccccccccccccccccccccccccccccccccccccccccccccccccccccccccccccccccc" />
  </g>
</svg>
