<?xml version="1.0" encoding="UTF-8" standalone="no"?>
<!-- Created with Inkscape (http://www.inkscape.org/) -->

<svg
   xmlns:dc="http://purl.org/dc/elements/1.1/"
   xmlns:cc="http://creativecommons.org/ns#"
   xmlns:rdf="http://www.w3.org/1999/02/22-rdf-syntax-ns#"
   xmlns:svg="http://www.w3.org/2000/svg"
   xmlns="http://www.w3.org/2000/svg"
   xmlns:sodipodi="http://sodipodi.sourceforge.net/DTD/sodipodi-0.dtd"
   xmlns:inkscape="http://www.inkscape.org/namespaces/inkscape"
   width="700"
   height="700"
   viewBox="0 0 700.00001 700"
   id="svg2"
   version="1.1"
   inkscape:version="0.91 r13725"
   inkscape:export-filename="C:\Users\rmf\Desktop\bitmap.png"
   inkscape:export-xdpi="65.828575"
   inkscape:export-ydpi="65.828575"
   sodipodi:docname="logo.svg">
  <defs
     id="defs4" />
  <sodipodi:namedview
     id="base"
     pagecolor="#ffffff"
     bordercolor="#666666"
     borderopacity="1.0"
     inkscape:pageopacity="0.0"
     inkscape:pageshadow="2"
     inkscape:zoom="0.24748737"
     inkscape:cx="-374.23964"
     inkscape:cy="257.70809"
     inkscape:document-units="px"
     inkscape:current-layer="layer1"
     showgrid="false"
     units="px"
     inkscape:window-width="1020"
     inkscape:window-height="629"
     inkscape:window-x="132"
     inkscape:window-y="215"
     inkscape:window-maximized="0" />
  <metadata
     id="metadata7">
    <rdf:RDF>
      <cc:Work
         rdf:about="">
        <dc:format>image/svg+xml</dc:format>
        <dc:type
           rdf:resource="http://purl.org/dc/dcmitype/StillImage" />
        <dc:title></dc:title>
      </cc:Work>
    </rdf:RDF>
  </metadata>
  <g
     inkscape:label="Layer 1"
     inkscape:groupmode="layer"
     id="layer1"
     transform="translate(0,-352.36219)">
    <path
       id="path4157"
       style="fill:#cd7f32;fill-opacity:1"
       d="m 333.26367,467.70703 c -38.87009,16.08772 -84.16313,13.87619 -118.81271,40.66931 -109.94593,64.65154 -156.72762,217.60939 -97.31527,331.51642 52.66493,110.64309 190.29752,173.28134 307.56592,133.89394 92.24655,-27.7332 165.55058,-111.70381 175.03011,-208.40501 6.68095,-48.51627 0.60179,-100.16652 -24.47419,-142.90745 -37.00708,-35.00963 -48.73005,-93.18936 -98.76497,-115.04803 -38.38491,-24.57098 -84.86647,-31.925 -127.79759,-38.39459 -5.15303,0.19553 -10.46983,0.38888 -15.4313,-1.32459 z m -8.39258,20.43555 c 2.72796,5.15392 -6.12307,-0.10025 0,0 z m -8.69336,0.7168 c 2.05979,3.91899 -4.23165,0.0104 0,0 z m 48.7168,16.46484 c 97.66837,5.31192 182.67162,85.16061 202.0957,179.70898 12.18003,15.47349 -7.44185,36.28406 -3.25527,5.25803 -15.82907,-97.83901 -105.31425,-176.36254 -204.33913,-180.35907 -2.06493,-3.11358 3.80231,-4.95703 5.4987,-4.60794 z m -33.17969,0.85547 c 2.08867,3.24871 -3.38051,0.33252 0,0 z m -2.96289,9.71093 c 3.39579,3.83738 -5.09218,0.8562 0,0 z M 302,517.32422 c 3.95147,3.45996 -4.43865,1.94179 0,0 z m -73.13477,1.28906 c 1.97902,2.37218 -2.88357,0.486 0,0 z m 61.97852,3.17578 c 1.97297,1.91022 -2.49206,0.86995 0,0 z m -69.52734,0.68555 c 3.14596,2.75329 -3.52434,1.5594 0,0 z m 64.93359,0.88477 c 3.41871,5.02244 -7.39759,-1.54874 0,0 z m -73.26953,4.8164 c 4.95188,3.29689 -5.756,1.99008 0,0 z m 148.16797,5.22461 c 80.51488,6.65271 156.16873,65.57986 176.20819,144.84343 24.73389,33.6462 -19.05134,55.49056 -47.77819,41.68697 -42.52336,-7.09897 -113.64636,23.24981 -126.597,-35.84353 -7.50706,-40.15108 -0.57132,-81.35203 -3.75393,-121.95982 0.0902,-9.60052 0.59329,-19.2121 1.92093,-28.72705 z m -155.32032,0.17773 c 0.84162,2.40502 -2.33496,0.0226 0,0 z m 113.34961,2.03126 c 35.47317,18.04126 9.46144,71.18298 18.71111,104.56378 2.09245,22.36943 -2.58344,29.55571 -17.94286,8.38244 -27.33801,-22.24932 -100.04675,-73.13583 -45.89073,-103.90229 14.3143,-5.75535 29.8677,-7.68726 45.12248,-9.04393 z m -103.85937,0.83398 c 0.99422,2.8756 -2.08191,-0.32684 0,0 z m -15.64258,1.71094 c 4.22445,2.13973 -3.94853,2.53652 0,0 z m -5.88086,4.03711 c 3.05222,3.38757 -4.0819,1.18744 0,0 z m 20.14844,1.9082 c 3.48258,3.24845 -4.25149,1.49702 0,0 z m -33.09375,10.80664 c 3.81895,3.13238 -5.21872,1.51624 0,0 z m -6.23047,6.20117 c 2.47403,4.15923 -5.07383,0.0495 0,0 z m -15.00586,17.22461 c 3.50085,3.31375 -4.58211,1.33009 0,0 z m -5.60742,6.63477 c 2.55523,2.887 -3.54858,1.19655 0,0 z m -5.00391,6.73437 c 3.50008,3.30594 -4.72632,1.24032 0,0 z m 4.375,1.3711 c 2.89314,2.82845 -3.60077,0.9282 0,0 z m -8.76367,4.45898 c 5.15204,2.22159 -4.54257,3.03243 0,0 z m 15.8125,2.16211 c 0.31997,2.5754 -2.83729,-1.28427 0,0 z m 76.54883,0.94336 c 36.37774,35.8066 72.50313,71.87265 109.30078,107.25 -22.23032,5.09124 -29.76287,-36.8689 -52.96035,-45.8699 -18.15416,-20.1661 -46.55839,-36.2466 -56.34043,-61.3801 z m -95.83008,5.44922 c 0.62772,2.65158 -2.72013,-0.71875 0,0 z m 51.44141,1.57812 c 41.02081,16.94901 63.33411,53.44033 96.97885,81.63654 35.0466,22.01968 4.34194,37.94492 -24.02364,30.88856 -35.81423,-13.35944 -88.62088,19.11449 -111.28328,-14.59821 1.9241,-34.70076 18.86288,-69.54068 38.32807,-97.92689 z m -55.70703,5.58008 c 2.51868,2.36011 -2.90443,1.14884 0,0 z m 8.72851,9.76172 c 2.42358,3.63996 -4.05263,0.32141 0,0 z m 11.47852,3.4375 c 2.32295,3.46109 -3.59154,1.10263 0,0 z m -28.41992,1.58594 c 3.35549,1.6935 -3.11829,1.95278 0,0 z m 11.82031,6.03515 c 2.43565,2.31096 -2.92009,0.81609 0,0 z m -14.01563,1.55664 c 3.453,4.07324 -5.24523,0.93024 0,0 z m -2.89453,8.05274 c 1.72806,5.31521 -5.68162,-0.62892 0,0 z m -3.31836,8.22461 c 3.91509,3.7303 -5.51556,1.67221 0,0 z m -2.6582,9.06836 c 4.60228,2.82375 -4.70632,2.36388 0,0 z m -5.04688,23.3789 c 1.18379,2.27878 -2.60603,-0.22561 0,0 z m 9.10743,3.36914 c 3.50831,1.84056 -3.31733,2.12394 0,0 z m -10.78711,5.47657 c 1.33879,2.38897 -2.51557,-0.0368 0,0 z m -1.88867,16.84179 -0.11102,0.55759 0.11102,-0.55759 z m 0.78906,7.50977 c 1.00238,2.32813 -2.63994,-0.0154 0,0 z m 170.55468,21.9375 c 39.95204,-1.64014 64.61432,40.37703 56.02428,76.62543 -12.77203,33.79563 20.57547,95.9712 -23.15772,108.32046 -53.87985,-9.04725 -102.65832,-44.9813 -131.52815,-91.10307 -14.10571,-26.81071 -55.1337,-99.78524 2.37801,-92.28194 32.78455,5.3782 63.69273,0.65721 96.28358,-1.56088 z m 162.40821,1.77734 c 30.80912,11.39439 91.26079,-21.3875 99.70485,23.60252 -9.60021,27.26429 -13.04083,75.40538 -46.86773,80.21047 -37.46807,-5.13282 -53.87741,-43.21962 -81.47411,-64.15622 -26.38665,-14.52479 -38.92352,-51.34809 4.10176,-37.95184 8.04419,0.3128 17.30636,3.35251 24.53523,-1.70493 z m -318.4668,0.23047 c 13.59131,34.34113 13.61099,73.91528 38.12195,104.35456 34.87624,55.79354 95.30726,96.78982 161.58118,102.1513 C 280.13978,963.67977 229.6323,918.3889 194.48617,891.66216 153.5903,852.69959 125.98685,798.45796 124.26953,741.48828 Z m 444.86133,4.0918 c 4.53042,41.0463 -31.8195,108.96054 -45.62921,119.93865 27.03561,-35.59043 39.29755,-77.48648 45.62921,-119.93865 l 0,0 z m -220.67774,7.99023 c 34.92591,14.25568 49.51167,53.58907 81.42183,72.66143 20.21324,15.73253 15.00229,26.37835 -1.87005,5.25165 -24.66232,-27.94629 -56.87147,-48.3337 -79.55178,-77.91308 z m 9.93946,41.78711 c 23.61004,33.29788 73.56168,51.52267 77.21727,94.18145 20.28925,24.99853 -37.99237,24.02124 -52.60061,34.75034 -48.55196,-2.25884 -14.94757,-66.92381 -25.00681,-97.48284 -0.0643,-10.48102 -0.66248,-20.99482 0.39015,-31.44895 z m 139.20312,59.74414 c 3.28334,3.68076 -5.39297,0.88783 0,0 z m -11.22461,27.63086 c 18.25004,4.8367 -9.16576,8.81982 0,0 z m -14.22851,28.2207 c -21.94103,31.00887 -66.03895,32.51225 -99.08196,43.06101 -24.53932,-9.04172 34.89145,-8.36143 44.12568,-15.42915 20.05752,-5.60325 37.2383,-17.19444 54.95628,-27.63186 z M 341.68555,417.06055 c -12.17787,1.73307 -24.28866,7.93761 -29.81908,19.40952 -6.31741,11.41066 -5.88807,27.98789 5.31714,36.23096 4.82687,5.62112 12.55803,12.37367 19.74887,6.10206 6.73466,-2.28068 14.19876,1.08024 21.22426,-1.58167 -0.79948,11.73298 13.81309,6.7353 16.84705,-0.4787 16.01343,-15.9185 9.62592,-47.33827 -11.91377,-54.85095 -6.78165,-2.83447 -14.05568,-4.52218 -21.40447,-4.83122 z m 7.18164,22.71093 c 10.97532,-1.43994 19.53805,19.10797 6.86865,21.52175 -6.8463,-1.94903 -13.68993,-2.31956 -19.2589,2.40062 -6.63856,-4.5158 -5.63301,-17.68087 1.16469,-22.02257 3.43873,-1.7991 7.44745,-1.76763 11.22556,-1.8998 z" />
  </g>
</svg>
